<?xml version="1.0" standalone="no"?>
<!DOCTYPE svg PUBLIC "-//W3C//DTD SVG 20010904//EN"
 "http://www.w3.org/TR/2001/REC-SVG-20010904/DTD/svg10.dtd">
<svg version="1.0" xmlns="http://www.w3.org/2000/svg"
 width="369.000000pt" height="369.000000pt" viewBox="0 0 369.000000 369.000000"
 preserveAspectRatio="xMidYMid meet">
<metadata>
Created by potrace 1.11, written by Peter Selinger 2001-2013
</metadata>
<g transform="translate(0.000000,369.000000) scale(0.100000,-0.100000)"
fill="#000000" stroke="none">
<path d="M549 2374 c-227 -43 -419 -219 -474 -434 -42 -163 -15 -342 71 -478
39 -60 95 -118 125 -127 48 -16 118 50 104 96 -4 12 -30 55 -57 95 -87 128
-110 260 -67 386 92 275 433 388 643 214 71 -58 80 -67 451 -435 201 -198 378
-367 395 -376 26 -13 38 -14 66 -5 39 13 54 35 54 80 0 39 -11 51 -455 493
-187 187 -368 360 -402 386 -35 26 -94 59 -132 73 -60 24 -96 31 -226 42 -16
2 -60 -3 -96 -10z"/>
<path d="M1354 2375 c-38 -16 -62 -43 -68 -78 -7 -40 30 -81 515 -570 459
-464 439 -447 514 -411 35 16 55 54 55 103 0 21 -81 107 -418 441 -560 557
-540 540 -598 515z"/>
<path d="M1869 2373 c-61 -41 -65 -81 -12 -144 60 -72 729 -734 802 -793 124
-101 231 -137 396 -131 166 5 280 57 405 184 178 180 221 443 111 673 -76 160
-169 225 -235 163 -33 -31 -34 -71 -1 -116 85 -117 115 -197 117 -306 2 -127
-44 -227 -148 -322 -69 -63 -143 -92 -250 -99 -97 -5 -175 14 -243 61 -25 17
-154 138 -286 268 -216 213 -332 327 -520 509 -67 65 -99 77 -136 53z"/>
</g>
</svg>
